<?xml version="1.0" encoding="UTF-8"?>
<!DOCTYPE svg PUBLIC "-//W3C//DTD SVG 1.1//EN" "http://www.w3.org/Graphics/SVG/1.1/DTD/svg11.dtd">
<!-- Creator: CorelDRAW -->
<svg xmlns="http://www.w3.org/2000/svg" xml:space="preserve" width="310mm" height="470mm" version="1.1" style="shape-rendering:geometricPrecision; text-rendering:geometricPrecision; image-rendering:optimizeQuality; fill-rule:evenodd; clip-rule:evenodd"
viewBox="0 0 31000 47000"
 xmlns:xlink="http://www.w3.org/1999/xlink"
 xmlns:xodm="http://www.corel.com/coreldraw/odm/2003"
 data-name="Group 1">
 <defs>
  <style type="text/css">
   <![CDATA[
    .fil3 {fill:none}
    .fil4 {fill:#FEFEFE;fill-rule:nonzero}
    .fil1 {fill:#0092E7;fill-rule:nonzero}
    .fil0 {fill:#48BB00;fill-rule:nonzero}
    .fil2 {fill:#FFAA00;fill-rule:nonzero}
   ]]>
  </style>
    <clipPath id="id0">
     <path d="M156.7 6836.22l5339.03 0 0 -6285.26 -5339.03 0 0 6285.26z"/>
    </clipPath>
 </defs>
 <g id="Layer_x0020_1">
  <metadata id="CorelCorpID_0Corel-Layer"/>
  <g id="Group_37" data-name="Group 37">
   <g data-name="Rectangle 9">
   </g>
   <g style="clip-path:url(#id0)">
    <g>
     <g data-name="Path 27">
      <path id="Path_27" class="fil0" d="M3241.07 6836.33l0 0 0 -1786.28c0.04,-1245.01 1009.73,-2254.66 2254.78,-2254.66l-0.16 0.04 0 1786.16c0.04,1244.97 -1009.65,2254.66 -2254.69,2254.66l0.07 0.08zm0 0l0 0 0 0z"/>
     </g>
     <path id="Path_28" class="fil1" d="M2667.89 5647.91l0 -2585.76c0,-1386.66 -1124.53,-2511.19 -2511.19,-2511.19l-0.04 2585.72c0.08,1386.62 1124.61,2511.15 2511.27,2511.15l-0.04 0.08z" data-name="Path 28"/>
     <g data-name="Path 29">
      <path id="Path_29" class="fil2" d="M4946.24 1625.6c0.08,470.81 -381.71,852.6 -852.53,852.6 -470.81,0 -852.6,-381.79 -852.6,-852.6 0,-470.81 381.79,-852.6 852.6,-852.6 470.82,0 852.61,381.79 852.61,852.6l-0.08 0zm0 0l0 0 0 0z"/>
     </g>
    </g>
   </g>
   <polygon class="fil3" points="156.7,6836.22 5495.73,6836.22 5495.73,550.96 156.7,550.96 "/>
  </g>
  <g id="Group_38" data-name="Group 38">
   <path id="Path_30" class="fil4" d="M6705.07 4656.47l0 -2802.06 1365.74 -0.04c22.05,-1.25 44.53,-1.94 66.7,-1.94 242.95,0 479.79,78.03 675.05,222.46 178.81,147.05 268.21,369.74 268.21,668.02 -0.34,124.88 -25.78,248.7 -74.42,363.58 -48.9,118.45 -125.41,223.71 -222.65,307.07 -105.07,88.41 -232.61,146.13 -368.37,166.55l-44.79 -228.01 856.63 1304.44 -865.61 0 -702.47 -1220.82 301.25 255.47 -576.41 -0.04 0 965.89 -678.86 -0.57zm678.86 -1465.75l571.77 0c7.38,0.34 14.76,0.61 22.13,0.61 97.01,0 191.05,-34.5 265.05,-97.16 69.44,-76.13 108,-175.54 108,-278.59 0,-13.27 -0.65,-26.69 -1.9,-39.85 0.68,-10.35 1.1,-20.73 1.1,-31.11 0,-96.47 -33.73,-189.94 -95.26,-264.21 -65.56,-63.92 -153.67,-99.78 -245.27,-99.78 -7.42,0 -14.95,0.3 -22.32,0.72l-603.72 -0.08 0.42 809.45zm2721.48 1465.75l0 -2802.06 692.32 -0.04 961.17 1339.27 -367.65 13.88 996.08 -1353.15 674.68 0 0 2802.06 -678.44 0.04 0 -2287.86 131.5 214.62 -955.09 1274.67 -949.38 -1293.87 144.46 -102.25 0 2195.07 -649.65 -0.38zm4914.84 56.73c-5.74,0 -12.28,0 -17.91,0 -122.79,0 -246.49,-6.5 -368.41,-19.08 -108.26,-11.22 -216.22,-32.1 -320.76,-61.99 -98.11,-28.75 -193.86,-65.94 -285.58,-111.23l0 -645.32c131.27,103.06 280.15,182.65 439.21,233.98 148.95,50.5 305.51,77.43 462.83,79.25 10.12,0.61 20.42,0.99 30.65,0.99 92.56,0 183.56,-25.25 262.96,-72.78 65.71,-48.11 104.53,-124.73 104.53,-206.15 0,-6.61 -0.26,-13.31 -0.8,-19.89 0.04,-1.33 0.08,-2.73 0.08,-4.1 0,-70.85 -35.14,-137.17 -93.74,-176.98 -76.85,-52.67 -161.46,-93.81 -250.52,-121.27 -104.76,-35.4 -220.97,-75.06 -348.71,-119.02 -81.72,-27.69 -162.11,-61.34 -239.45,-99.75 -77.01,-37.99 -148.12,-87.84 -210.1,-147.24 -63.92,-62.29 -114.46,-137.16 -148.31,-219.72 -36.73,-94.42 -55.74,-195 -55.74,-296.38 0,-7.45 0.11,-15.14 0.3,-22.51 0,-0.19 0,-0.61 0,-0.84 0,-113.97 22.13,-227.14 64.72,-332.77 43.73,-108.42 110.66,-206.49 195.76,-286.73 96.86,-89.1 211.93,-157.09 336.81,-198.5 146.44,-48.41 300.07,-73.43 454.42,-73.43 9.36,0 19.4,0.19 28.56,0.34 5.67,-0.15 12.21,-0.15 17.99,-0.15 96.09,0 192.68,6.81 287.75,20.12 86.09,12.93 171.84,33.73 254.36,61.52 84.8,29.13 168.2,63.97 248.58,104.05l0 651.97c-68.44,-53.77 -141.23,-103.21 -216.79,-146.29 -79.82,-45.82 -164.12,-84.53 -250.98,-114.99 -87.27,-30.69 -179.1,-48.3 -271.62,-51.95 -14.49,-0.84 -29.36,-1.37 -44,-1.37 -63.7,0 -127.12,8.44 -188.61,24.87 -62.25,15.63 -118.8,48.71 -163.03,95.18 -38.59,44 -59.89,100.59 -59.89,159.15 0,3.3 0.08,6.69 0.19,9.96 -0.19,4.14 -0.3,8.4 -0.3,12.55 0,64.04 25.47,125.53 70.77,170.78 56.88,50.46 123.85,88.56 196.37,111.57 84.07,29.7 178.88,60.65 284.48,92.86 107.12,31.03 213.37,69.13 316.08,112.83 91.64,38.21 177.47,90.5 253.6,154.16 72.1,61.41 129.75,138.65 168.19,225.31 39.97,95.68 60.62,198.58 60.62,302.24 0,7 -0.19,14.33 -0.31,21.22 0,3.76 0.12,7.98 0.12,11.86 0,156.98 -40.69,311.52 -117.85,448.15 -80.31,139.03 -199.03,252.31 -341.67,325.89 -158.23,78.98 -332.96,120.17 -509.94,120.17 -11.6,0 -23.47,-0.27 -34.91,-0.57l0 0.03z" data-name="Path 30"/>
   <path id="Path_31" class="fil4" d="M6668.07 6295.24l0 -898.58 290.26 0c4.79,-0.22 9.7,-0.3 14.49,-0.3 54.49,0 108.34,11.98 157.69,35.02 41.99,20.65 76.59,53.93 98.91,95.07 21.11,40.08 32.14,84.8 32.14,130.17 0,1.14 -0.04,2.32 -0.04,3.42 0,0.95 0.04,2.02 0.04,3 0,53.13 -15.79,105.07 -45.29,149.22 -34.27,48.07 -84.65,82.25 -142,96.29l196.49 386.54 -127.51 0.04 -182.3 -371.07 -185.04 0 0 371.15 -107.84 0.03zm107.84 -455.86l174.66 0c5.86,0.45 11.75,0.72 17.61,0.72 49.39,0 97.12,-18.22 133.97,-51.07 30.65,-33.09 47.64,-76.51 47.64,-121.61 0,-2.28 -0.07,-4.6 -0.11,-6.89 0.11,-2.81 0.19,-5.74 0.19,-8.59 0,-43.88 -16.88,-86.09 -47.12,-117.88 -37.72,-30.84 -85.02,-47.77 -133.81,-47.77 -6.5,0 -13.05,0.31 -19.51,0.92l-173.52 0 0 352.17zm866.98 471.34c-3.8,0.15 -7.76,0.27 -11.67,0.27 -62.9,0 -123.33,-24.84 -168.04,-68.98 -43.85,-52.63 -67.85,-118.99 -67.85,-187.44 0,-8.02 0.35,-16.09 0.99,-24.07l0 -372.29 107.81 0.04 0 360.92c0,132.75 54.38,199.11 163.1,199.11 1.56,0 3.08,0.03 4.56,0.03 51,0 99.63,-21.78 133.55,-59.81 35.71,-43.54 55.33,-98.23 55.33,-154.54 0,-5.25 -0.19,-10.54 -0.49,-15.71l-0.08 -330 107.88 0 0 637.07 -97.8 0.04 -7.64 -113.89c-19.09,39.7 -49.78,72.86 -87.89,95.03 -38.52,22.36 -82.36,34.14 -126.93,34.14 -1.56,0 -3.19,-0.03 -4.75,-0.03l-0.08 0.11zm489.37 -15.36l0 -924.86 107.88 0 0 556.19 260.79 -268.44 132.3 0 -282.54 287.75 318.55 349.32 -137.54 0.04 -291.78 -330.12 0 330.12 -107.66 0zm867.02 15.36c-3.84,0.15 -7.8,0.27 -11.72,0.27 -62.89,0 -123.32,-24.84 -168.04,-68.98 -43.84,-52.63 -67.84,-118.99 -67.84,-187.44 0,-7.95 0.31,-15.97 0.95,-23.84l0 -372.29 107.89 0 0 360.92c0,132.75 54.37,199.11 163.09,199.11 1.53,0 3.05,0.03 4.53,0.03 50.99,0 99.63,-21.78 133.55,-59.81 35.63,-43.5 55.14,-98.04 55.14,-154.28 0,-5.25 -0.19,-10.65 -0.49,-15.85l-0.04 -330.31 107.84 0 0 637.07 -97.58 0.04 -8.17 -113.89c-19.13,39.7 -49.82,72.86 -87.92,95.03 -38.56,22.36 -82.37,34.14 -126.93,34.14 -1.41,0 -2.89,-0.03 -4.26,-0.03l0 0.11zm489.37 -15.36l0 -637.11 97.57 0 6.43 114.31c19.89,-39.51 50.73,-72.52 88.72,-95.07 38.41,-22.7 82.33,-34.75 127.01,-34.75 1.25,0 2.55,0.04 3.76,0.04 3.81,-0.23 7.65,-0.31 11.49,-0.31 63.16,0 123.89,24.79 168.99,68.98 44.15,52.44 68.41,118.91 68.41,187.48 0,7.91 -0.3,15.93 -0.95,23.8l0 372.29 -107.81 0.03 0 -360.91c0,-132.75 -54.79,-199.11 -164.39,-199.11 -1.25,-0.04 -2.62,-0.08 -3.92,-0.08 -50.8,0 -99.21,21.79 -132.9,59.82 -35.63,43.5 -55.14,98.03 -55.14,154.28 0,5.24 0.19,10.64 0.5,15.85l0 330.12 -107.77 0.34zm1055.74 0l0 -898.7 125.87 0 323.69 626.84 321.06 -626.84 126.93 0 0 899.08 -107.65 0 0 -706.89 -300.53 578.01 -80.5 0 -300.53 -576.71 0 705.09 -108.34 0.12zm1134.08 -777.96c-0.65,0 -1.37,0 -2.09,0 -19.2,0 -37.65,-7.64 -51.18,-21.26 -13.66,-13.53 -21.3,-31.98 -21.3,-51.18 0,-0.72 0,-1.45 0.04,-2.13 0,-0.61 0,-1.22 0,-1.79 0,-18.75 7.68,-36.69 21.26,-49.62 13.61,-12.93 31.71,-20.16 50.53,-20.16 0.92,0 1.87,0.04 2.78,0.04 0.61,-0.04 1.25,-0.04 1.86,-0.04 18.86,0 37.04,7.23 50.77,20.16 13.92,12.81 21.86,30.87 21.86,49.77 0,0.54 0,1.11 0,1.64 0,0.65 0,1.33 0,2.01 0,19.36 -7.91,37.92 -21.86,51.34 -13.65,13.58 -32.13,21.22 -51.41,21.22 -0.42,0 -0.84,0 -1.22,0l-0.04 0zm-53.92 778.34l0 -637.49 107.88 0 0 637.07 -107.88 0.42zm534.35 0c-3.87,0.19 -7.87,0.3 -11.78,0.3 -45.45,0 -89.6,-15.02 -125.61,-42.66 -33.08,-35.64 -51.52,-82.49 -51.52,-131.12 0,-7.23 0.41,-14.49 1.21,-21.72l0 -350.64 -110.69 0.04 0 -91.69 110.66 0 14.07 -152.83 93.81 0 0 152.83 187.93 0 0 91.15 -187.74 0 0 350.65c-0.5,4.26 -0.76,8.59 -0.76,12.93 0,25.14 8.97,49.51 25.25,68.64 21.67,14.26 47.07,21.86 73.05,21.86 4.33,0 8.67,-0.22 12.96,-0.64l67.16 0.04 0 92.48 -98 0.38zm232.54 0l0 -637.49 97.58 0 8.93 122.03c19.4,-41.68 50.73,-76.78 90.01,-100.58 42.37,-24.53 90.51,-37.46 139.45,-37.46 3.16,0 6.39,0.08 9.54,0.16l0 112.97 -29.58 0.08c-0.76,0 -1.6,0 -2.4,0 -34.87,0 -69.43,6.88 -101.64,20.15 -31.91,13.47 -58.6,37.19 -75.72,67.35 -18.78,36.35 -28.63,76.78 -28.63,117.73 0,4.34 0.11,8.75 0.34,13.04l0 321.07 -107.88 0.95zm665.36 15.4c-3.31,0.07 -6.73,0.15 -10.08,0.15 -42.25,0 -83.96,-9.28 -122.22,-27.15 -32.66,-15.67 -59.97,-40.73 -78.37,-71.91 -16.81,-29.32 -25.67,-62.52 -25.67,-96.28 0,-0.42 0,-0.92 0,-1.34 -0.08,-2.62 -0.15,-5.36 -0.15,-8.02 0,-56.81 27.91,-110.01 74.65,-142.3 55.1,-34.68 119.02,-53.12 184.16,-53.12 6.2,0 12.59,0.23 18.75,0.49l172.11 0.04 0 -7.75c0.3,-4.07 0.45,-8.18 0.45,-12.25 0,-42.21 -15.74,-82.97 -44.11,-114.23 -29.51,-27.76 -68.56,-43.24 -109.1,-43.24 -2.58,0 -5.24,0.08 -7.79,0.19 -1.52,-0.04 -3.2,-0.08 -4.79,-0.08 -36.97,0 -73.05,10.99 -103.74,31.57 -30.8,21.52 -51.45,54.76 -57.19,91.87l-110.7 0c2.97,-42.97 19.43,-83.89 46.96,-116.93 27.15,-31.87 61.72,-56.78 100.55,-72.52 40.08,-16.54 83.16,-25.1 126.55,-25.1 0.61,0 1.33,0 1.94,0 6.65,-0.45 13.39,-0.76 20.04,-0.76 67.38,0 132.26,25.78 181.2,72.02 43.58,48.49 67.73,111.42 67.73,176.68 0,4.22 -0.12,8.55 -0.31,12.74l0 391.79 -96.32 0.04 -6.31 -114.27c-18.45,36.5 -45.6,68.14 -78.99,91.87 -37.6,24.49 -81.6,37.61 -126.55,37.61 -4.26,0 -8.63,-0.15 -12.89,-0.38l0.19 0.57zm16.69 -91.15c1.52,0 3.08,0.04 4.64,0.04 36.28,0 71.72,-11.26 101.31,-32.14 29.51,-21.37 52.82,-50.23 67.46,-83.5 15.21,-33.73 23.12,-70.32 23.12,-107.28 0,-0.19 0,-0.46 0,-0.65l0 -1.29 -163.33 0.04c-6.5,-0.61 -13.12,-0.95 -19.7,-0.95 -40.61,0 -80.39,11.71 -114.5,33.73 -24.71,19.32 -39.16,49.02 -39.16,80.39 0,0.38 0,0.83 0,1.22 0,1.17 -0.04,2.43 -0.04,3.65 0,29.81 13.5,58.1 36.69,76.81 26.89,19.36 59.25,29.78 92.41,29.78 3.65,0 7.3,-0.16 10.91,-0.38l0.19 0.53zm1073.73 91.15c-2.96,0.07 -6.16,0.11 -9.24,0.11 -56.24,0 -111.91,-12.32 -162.87,-36.01 -46.5,-22.05 -85.75,-57.04 -112.97,-100.66 -26.36,-43.31 -40.31,-93.16 -40.31,-143.85 0,-1.68 0.03,-3.5 0.03,-5.17l113.29 0.03c0,0.57 0,1.14 0,1.71 0,33.28 8.44,66.1 24.45,95.26 16.58,29.74 41.33,54.23 71.26,70.47 33.39,17.34 70.58,26.43 108.26,26.43 2.63,0 5.33,-0.08 7.95,-0.16 4.18,0.35 8.48,0.46 12.74,0.46 46.39,0 91.53,-15.55 128.11,-44.07 31.83,-26.39 50.31,-65.6 50.31,-106.97 0,-0.73 0,-1.49 0,-2.21 0.08,-2.36 0.16,-4.79 0.16,-7.15 0,-28.21 -8.1,-55.82 -23.31,-79.55 -16.17,-22.51 -37.58,-40.84 -62.29,-53.35 -28.75,-14.72 -58.94,-26.85 -89.97,-35.94 -33.54,-10.23 -68.83,-21.79 -105.95,-34.64 -57.69,-17.08 -110.58,-47.72 -154.12,-89.25 -32.44,-35.9 -50.46,-82.63 -50.46,-131.04 0,-2.78 0.11,-5.63 0.19,-8.37 -0.16,-2.74 -0.19,-5.55 -0.19,-8.33 0,-42.13 11.63,-83.46 33.57,-119.44 23.77,-37.84 57.96,-68.14 98.3,-87.31 44.57,-20.84 93.21,-31.64 142.42,-31.64 2.81,0 5.74,0.08 8.51,0.12 2.59,0 5.33,-0.04 7.91,-0.04 49.02,0 97.54,11.06 141.73,32.21 40.54,19.7 74.8,50.46 98.87,88.56 23.84,38.6 36.54,83.13 36.62,128.5l-112.6 0.03c-0.19,-25.85 -6.84,-51.26 -19.2,-73.88 -13.46,-25.02 -33.77,-45.75 -58.45,-59.74 -28.06,-15.29 -59.47,-23.28 -91.42,-23.28 -2.28,0 -4.64,0.04 -6.92,0.12 -3.53,-0.19 -7.18,-0.31 -10.8,-0.31 -39.58,0 -78.07,13.24 -109.29,37.54 -29.85,24.83 -47.07,61.64 -47.07,100.46 0,2.06 0.03,4.15 0.15,6.2 -0.12,2.51 -0.23,5.06 -0.23,7.61 0,30.27 11.86,59.36 33.05,81 26.65,23.15 58.02,40.3 91.87,50.34l136.14 45.6c40.11,14.11 78.98,32.28 115.6,53.92 33.08,19.24 60.84,46.7 80.5,79.55 19.01,35.22 29.02,74.69 29.02,114.77 0,3.61 -0.08,7.26 -0.23,10.87 -0.04,0.04 -0.04,0.12 -0.04,0.12 0,42.66 -11.56,84.65 -33.39,121.27 -24.11,39.85 -59.02,72.21 -100.62,93.16 -48.37,23.43 -101.61,35.67 -155.38,35.67 -4.6,0 -9.27,-0.07 -13.84,-0.26l0.15 0.53zm723.13 0c-1.91,0 -3.92,0.04 -5.82,0.04 -54.76,0 -108.57,-14.45 -155.99,-41.8 -46.85,-27.79 -85.18,-68.14 -110.66,-116.24 -26.46,-51.45 -40.34,-108.57 -40.34,-166.45 0,-3.15 0.07,-6.42 0.11,-9.54 -0.04,-2.47 -0.08,-5.1 -0.08,-7.61 0,-58.29 13.85,-115.83 40.31,-167.74 25.1,-48.63 63.55,-89.21 110.66,-116.93 48.22,-27.38 102.83,-41.83 158.31,-41.83 2.2,0 4.52,0.04 6.69,0.08 2.51,0 5.13,-0.08 7.68,-0.08 53.58,0 106.21,14.49 152.22,41.87 43.7,26.54 79.52,64.57 103.36,109.78 23.62,44.5 35.97,94.2 35.97,144.54 0,0.61 0,1.26 0,1.87 0,9.39 -0.19,18.78 -0.6,28.25 -0.38,9.47 -0.57,20.16 -0.57,32.1l-508.24 0c0.84,42.62 12.55,84.49 34,121.34 18.41,30.42 44.57,55.48 75.79,72.52 29.58,16.01 62.74,24.45 96.44,24.45 0.19,0 0.34,0 0.53,0 2.32,0.11 4.71,0.15 7.03,0.15 37.16,0 73.59,-10.76 104.77,-30.91 29.85,-20.5 52.78,-49.67 65.48,-83.55l106.67 0.04c-16.47,58.07 -50.96,109.63 -98.3,147.09 -49.86,37.8 -110.74,58.29 -173.29,58.29 -4.07,0 -8.26,-0.15 -12.29,-0.26l0.16 0.53zm0 -576.72c-0.84,0 -1.79,-0.04 -2.67,-0.04 -48.75,0 -96.09,16.54 -134.19,46.89 -41.15,33.84 -66.13,83.58 -68.68,136.86l400.73 0c0,-0.15 0,-0.38 0,-0.53 0,-51.07 -21.45,-99.79 -59.06,-134.31 -36.2,-31.8 -82.74,-49.36 -130.92,-49.36 -1.75,0 -3.58,0.03 -5.33,0.07l0.12 0.42zm502.07 -217.02c-0.42,0 -0.84,0 -1.26,0 -19.28,0 -37.76,-7.64 -51.41,-21.26 -13.96,-13.38 -21.87,-31.94 -21.87,-51.3 0,-0.68 0,-1.36 0.04,-2.01 0,-0.53 0,-1.1 0,-1.64 0,-18.9 7.95,-36.96 21.87,-49.77 13.73,-12.93 31.9,-20.16 50.76,-20.16 0.61,0 1.26,0 1.87,0.04 0.64,-0.04 1.4,-0.04 2.09,-0.04 18.59,0 36.5,7.23 49.89,20.16 13.58,12.93 21.26,30.87 21.26,49.62 0,0.57 0,1.18 -0.04,1.75 0.04,0.72 0.04,1.45 0.04,2.17 0,19.2 -7.65,37.65 -21.26,51.18 -13.27,13.58 -31.45,21.26 -50.42,21.26 -0.54,0 -1.07,0 -1.6,0l0.04 0zm-195.2 1060.46l0 -92.48 50.31 0.04c2.86,0.22 5.71,0.34 8.6,0.34 21.75,0 42.89,-7.23 60.08,-20.5 13.96,-16.24 21.68,-37 21.68,-58.45 0,-3 -0.16,-5.97 -0.46,-8.93l0.04 -739.63 107.84 0 0 742.44c0.46,5.1 0.69,10.31 0.69,15.48 0,44.26 -16.81,86.93 -46.97,119.29 -34.3,27.72 -77.12,42.86 -121.23,42.86 -4.52,0 -9.09,-0.16 -13.57,-0.46l-67.01 0zm634.45 -267.14c-3.31,0.11 -6.73,0.19 -10.08,0.19 -42.25,0 -83.96,-9.28 -122.22,-27.15 -32.66,-15.71 -59.97,-40.77 -78.37,-71.95 -16.81,-29.32 -25.67,-62.51 -25.67,-96.28 0,-0.42 0,-0.92 0,-1.33 -0.12,-2.63 -0.19,-5.37 -0.19,-8.03 0,-56.81 27.91,-110.01 74.65,-142.29 55.14,-34.65 119.06,-53.09 184.2,-53.09 6.2,0 12.59,0.23 18.75,0.49l172.14 0 0 -7.75c0.27,-4.03 0.42,-8.14 0.42,-12.21 0,-42.21 -15.74,-82.97 -44.11,-114.23 -29.51,-27.8 -68.56,-43.28 -109.1,-43.28 -2.58,0 -5.25,0.08 -7.79,0.19 -1.56,-0.04 -3.24,-0.07 -4.83,-0.07 -36.97,0 -73.05,10.99 -103.74,31.56 -30.8,21.52 -51.45,54.76 -57.19,91.87l-110.62 0c2.89,-42.97 19.35,-83.89 46.88,-116.93 27.19,-31.87 61.76,-56.78 100.58,-72.52 40.09,-16.5 83.17,-25.06 126.56,-25.06 0.61,0 1.33,0 1.94,0 6.65,-0.49 13.38,-0.8 20.04,-0.8 67.38,0 132.26,25.79 181.2,72.03 43.54,48.52 67.69,111.45 67.69,176.71 0,4.22 -0.12,8.55 -0.31,12.74l0 391.79 -96.25 0.04 -6.35 -113.89c-18.44,36.5 -45.59,68.14 -78.98,91.87 -37.61,24.49 -81.6,37.61 -126.55,37.61 -4.22,0 -8.52,-0.12 -12.7,-0.34l0 0.11zm16.73 -91.15c1.48,0.04 3.04,0.08 4.6,0.08 36.28,0 71.72,-11.26 101.3,-32.14 29.48,-21.41 52.79,-50.27 67.43,-83.54 15.24,-33.69 23.15,-70.28 23.15,-107.24 0,-0.19 0,-0.46 0,-0.65l0 -1.29 -163.09 0c-6.54,-0.57 -13.16,-0.91 -19.74,-0.91 -40.61,0 -80.39,11.71 -114.5,33.73 -24.72,19.28 -39.17,48.98 -39.17,80.35 0,0.38 0,0.84 0,1.22 0,1.18 -0.03,2.43 -0.03,3.65 0,29.81 13.49,58.1 36.69,76.81 27,19.62 59.55,30.2 92.94,30.2 3.57,0 7.15,-0.16 10.69,-0.38l-0.27 0.11zm687.19 75.79c-3.92,0.15 -7.91,0.26 -11.83,0.26 -45.44,0 -89.59,-15.02 -125.6,-42.66 -33.13,-35.63 -51.57,-82.48 -51.57,-131.12 0,-7.23 0.42,-14.49 1.22,-21.71l0 -350.65 -110.66 0.04 0 -91.27 110.66 0 14.07 -152.83 93.81 0 0 152.83 187.85 0 0 91.15 -187.55 0 0 350.65c-0.57,4.26 -0.83,8.59 -0.83,12.93 0,25.14 8.97,49.51 25.25,68.64 21.71,14.26 47.11,21.86 73.09,21.86 4.33,0 8.67,-0.22 12.96,-0.64l66.82 0.04 0 92.48 -97.69 0zm298.01 -778.38c-0.72,0.04 -1.44,0.04 -2.16,0.04 -19.21,0 -37.65,-7.64 -51.19,-21.26 -13.65,-13.57 -21.29,-32.02 -21.29,-51.22 0,-0.72 0,-1.44 0.03,-2.13 0,-0.57 0,-1.18 0,-1.75 0,-18.75 7.69,-36.69 21.26,-49.62 13.61,-12.97 31.72,-20.2 50.54,-20.2 0.91,0 1.86,0.04 2.78,0.04 0.6,0 1.25,0 1.86,0 18.86,0 37.04,7.23 50.76,20.16 13.92,12.77 21.87,30.84 21.87,49.74 0,0.53 0,1.1 0,1.63 0,0.65 0,1.33 0,2.02 0,19.35 -7.91,37.91 -21.87,51.33 -13.69,13.84 -32.36,21.64 -51.83,21.64 -0.3,0 -0.6,0 -0.91,0l0.15 -0.42zm-53.96 778.38l0 -637.11 107.89 0 0 637.07 -107.89 0.04z" data-name="Path 31"/>
  </g>
 </g>
</svg>
