<svg id="Group_1" data-name="Group 1" xmlns="http://www.w3.org/2000/svg" xmlns:xlink="http://www.w3.org/1999/xlink" width="166.293" height="62.47" viewBox="0 0 166.293 62.47">
  <defs>
    <clipPath id="clip-path">
      <rect id="Rectangle_9" data-name="Rectangle 9" width="53.065" height="62.47" fill="none"/>
    </clipPath>
  </defs>
  <g id="Group_37" data-name="Group 37" transform="translate(0 0)">
    <g id="Group_36" data-name="Group 36" clip-path="url(#clip-path)">
      <path id="Path_27" data-name="Path 27" d="M59.306,83.319h0V65.565A22.41,22.41,0,0,1,81.715,43.156h0V60.909a22.41,22.41,0,0,1-22.41,22.41" transform="translate(-28.65 -20.848)" fill="#48bb00"/>
      <path id="Path_28" data-name="Path 28" d="M24.959,50.659v-25.7A24.959,24.959,0,0,0,0,0V25.7A24.959,24.959,0,0,0,24.959,50.659Z" transform="translate(0 0)" fill="#0092e7"/>
      <path id="Path_29" data-name="Path 29" d="M76.254,12.744A8.474,8.474,0,1,1,67.78,4.27a8.474,8.474,0,0,1,8.474,8.474" transform="translate(-28.65 -2.063)" fill="#fa0"/>
    </g>
  </g>
  <g id="Group_38" data-name="Group 38" transform="translate(64.717 12.333)">
    <path id="Path_30" data-name="Path 30" d="M11.147-78.587v-27.85H24.721a11.283,11.283,0,0,1,7.372,2.192q2.666,2.192,2.666,6.639a9.333,9.333,0,0,1-.739,3.614,8.1,8.1,0,0,1-2.213,3.052,7.4,7.4,0,0,1-3.662,1.655L27.7-91.551l8.514,12.965H27.611L20.629-90.72l2.994,2.539H17.894v9.6Zm6.747-14.568h5.683a4.076,4.076,0,0,0,2.854-.96,4.108,4.108,0,0,0,1.054-3.165,4.116,4.116,0,0,0-.935-2.935,3.492,3.492,0,0,0-2.66-.985h-6ZM44.943-78.587v-27.85h6.881l9.553,13.311-3.654.138,9.9-13.449h6.706v27.85H67.586v-22.739l1.307,2.133L59.4-86.524l-9.436-12.86L51.4-100.4v21.817Zm48.849.564a35.327,35.327,0,0,1-3.841-.19,18.7,18.7,0,0,1-3.186-.616,17.4,17.4,0,0,1-2.839-1.106v-6.414a14.029,14.029,0,0,0,4.365,2.326,14.823,14.823,0,0,0,4.6.789,5.085,5.085,0,0,0,2.919-.714,2.541,2.541,0,0,0,1.031-2.247,2.127,2.127,0,0,0-.931-1.8A9.2,9.2,0,0,0,93.42-89.2q-1.562-.528-3.466-1.183a19.428,19.428,0,0,1-2.38-.992,8.381,8.381,0,0,1-2.088-1.463,6.5,6.5,0,0,1-1.474-2.184,8.107,8.107,0,0,1-.551-3.169,8.827,8.827,0,0,1,.643-3.316,8.073,8.073,0,0,1,1.946-2.85,9.241,9.241,0,0,1,3.347-1.973,14.344,14.344,0,0,1,4.8-.727,20.477,20.477,0,0,1,3.04.2,14.7,14.7,0,0,1,2.528.61,20.263,20.263,0,0,1,2.47,1.035v6.48a17.28,17.28,0,0,0-2.155-1.455,14.855,14.855,0,0,0-2.493-1.142,9.253,9.253,0,0,0-2.7-.517,7.233,7.233,0,0,0-2.313.234,3.374,3.374,0,0,0-1.62.946,2.4,2.4,0,0,0-.593,1.681,2.4,2.4,0,0,0,.7,1.822,5.412,5.412,0,0,0,1.952,1.109q1.253.443,2.827.923a28.45,28.45,0,0,1,3.142,1.121,9.853,9.853,0,0,1,2.52,1.532,6.294,6.294,0,0,1,1.672,2.24,7.787,7.787,0,0,1,.6,3.215,9.051,9.051,0,0,1-1.171,4.572,8.331,8.331,0,0,1-3.395,3.24A11.362,11.362,0,0,1,93.792-78.023Z" transform="translate(-10.779 107.059)" fill="#333"/>
    <path id="Path_31" data-name="Path 31" d="M3.552-25.369V-34.3H6.437a3.706,3.706,0,0,1,1.711.345,2.249,2.249,0,0,1,.983.945,2.782,2.782,0,0,1,.319,1.328A2.668,2.668,0,0,1,9-30.169a2.449,2.449,0,0,1-1.411.957l1.953,3.842H8.275L6.463-29.058H4.624v3.689ZM4.624-29.9H6.36a2,2,0,0,0,1.506-.5,1.78,1.78,0,0,0,.472-1.277,1.7,1.7,0,0,0-.466-1.257A2.1,2.1,0,0,0,6.348-33.4H4.624Zm8.617,4.685a2.377,2.377,0,0,1-1.787-.683A2.912,2.912,0,0,1,10.79-28v-3.7h1.072v3.587q0,1.979,1.621,1.979a1.779,1.779,0,0,0,1.372-.594A2.419,2.419,0,0,0,15.4-28.42V-31.7h1.072v6.332H15.5L15.424-26.5a2.2,2.2,0,0,1-.874.945A2.515,2.515,0,0,1,13.241-25.216Zm4.864-.153V-34.56h1.072v5.528L21.769-31.7h1.315l-2.808,2.86,3.166,3.472H22.075l-2.9-3.281v3.281Zm8.617.153a2.377,2.377,0,0,1-1.787-.683,2.912,2.912,0,0,1-.664-2.1v-3.7h1.072v3.587q0,1.979,1.621,1.979a1.779,1.779,0,0,0,1.372-.594,2.419,2.419,0,0,0,.543-1.691V-31.7h1.072v6.332h-.97L28.9-26.5a2.2,2.2,0,0,1-.874.945A2.515,2.515,0,0,1,26.722-25.216Zm4.864-.153V-31.7h.97l.064,1.136a2.3,2.3,0,0,1,.881-.945,2.481,2.481,0,0,1,1.3-.345,2.4,2.4,0,0,1,1.794.683,2.894,2.894,0,0,1,.67,2.1v3.7H36.194v-3.587q0-1.979-1.634-1.979a1.765,1.765,0,0,0-1.36.594,2.419,2.419,0,0,0-.543,1.691v3.281Zm10.493,0V-34.3H43.33l3.217,6.23,3.191-6.23H51v8.936H49.93V-32.39l-2.987,5.745h-.8l-2.987-5.732v7.008ZM53.351-33.1a.718.718,0,0,1-.53-.211.718.718,0,0,1-.211-.53.682.682,0,0,1,.211-.511.73.73,0,0,1,.53-.2.736.736,0,0,1,.523.2.672.672,0,0,1,.217.511.707.707,0,0,1-.217.53A.724.724,0,0,1,53.351-33.1Zm-.536,7.736V-31.7h1.072v6.332Zm5.311,0a2.049,2.049,0,0,1-1.366-.421,1.914,1.914,0,0,1-.5-1.519v-3.485h-1.1V-31.7h1.1l.14-1.519h.932V-31.7H59.2v.906H57.334v3.485a1.053,1.053,0,0,0,.243.811,1.322,1.322,0,0,0,.855.211H59.1v.919Zm2.311,0V-31.7h.97l.089,1.213a2.3,2.3,0,0,1,.894-1,2.771,2.771,0,0,1,1.481-.37v1.123h-.294a2.65,2.65,0,0,0-1.034.2,1.57,1.57,0,0,0-.753.67,2.55,2.55,0,0,0-.281,1.3v3.191Zm6.613.153a2.87,2.87,0,0,1-1.315-.268,1.822,1.822,0,0,1-.779-.715,1.922,1.922,0,0,1-.255-.97,1.719,1.719,0,0,1,.74-1.494,3.438,3.438,0,0,1,2.017-.523h1.711v-.077a1.69,1.69,0,0,0-.434-1.257,1.583,1.583,0,0,0-1.162-.428,1.852,1.852,0,0,0-1.079.313,1.37,1.37,0,0,0-.568.913h-1.1a2.032,2.032,0,0,1,.466-1.162,2.6,2.6,0,0,1,1-.721,3.3,3.3,0,0,1,1.277-.249,2.624,2.624,0,0,1,2,.708,2.628,2.628,0,0,1,.67,1.883v3.894h-.957L69.219-26.5a2.511,2.511,0,0,1-.785.913A2.3,2.3,0,0,1,67.048-25.216Zm.166-.906a1.746,1.746,0,0,0,1.053-.319,2.037,2.037,0,0,0,.67-.83,2.584,2.584,0,0,0,.23-1.072v-.013H67.546a2.1,2.1,0,0,0-1.334.326,1.015,1.015,0,0,0-.389.811.982.982,0,0,0,.364.8A1.574,1.574,0,0,0,67.214-26.122Zm10.672.906a3.838,3.838,0,0,1-1.711-.357,2.671,2.671,0,0,1-1.123-1,2.752,2.752,0,0,1-.4-1.481H75.78a1.965,1.965,0,0,0,.243.964,1.785,1.785,0,0,0,.708.7,2.331,2.331,0,0,0,1.155.262,2.07,2.07,0,0,0,1.4-.434,1.38,1.38,0,0,0,.5-1.085,1.465,1.465,0,0,0-.23-.862,1.718,1.718,0,0,0-.619-.53,5.142,5.142,0,0,0-.894-.357q-.5-.153-1.053-.345a3.761,3.761,0,0,1-1.532-.887,1.94,1.94,0,0,1-.5-1.385,2.279,2.279,0,0,1,.332-1.27,2.34,2.34,0,0,1,.977-.868,3.347,3.347,0,0,1,1.5-.313,3.26,3.26,0,0,1,1.487.319,2.412,2.412,0,0,1,.983.881,2.443,2.443,0,0,1,.364,1.277H79.482a1.562,1.562,0,0,0-.191-.734,1.5,1.5,0,0,0-.581-.594,1.9,1.9,0,0,0-.977-.23,1.767,1.767,0,0,0-1.194.37,1.3,1.3,0,0,0-.466,1.06,1.151,1.151,0,0,0,.326.881,2.465,2.465,0,0,0,.913.5l1.353.453a6.522,6.522,0,0,1,1.149.536,2.257,2.257,0,0,1,.8.791A2.4,2.4,0,0,1,80.9-27.7a2.354,2.354,0,0,1-.332,1.206,2.466,2.466,0,0,1-1,.926A3.54,3.54,0,0,1,77.886-25.216Zm7.187,0a3.1,3.1,0,0,1-1.608-.415,2.946,2.946,0,0,1-1.1-1.155,3.611,3.611,0,0,1-.4-1.749,3.668,3.668,0,0,1,.4-1.743,2.877,2.877,0,0,1,1.1-1.162,3.186,3.186,0,0,1,1.64-.415,2.959,2.959,0,0,1,1.589.415,2.811,2.811,0,0,1,1.028,1.091,3.069,3.069,0,0,1,.357,1.455q0,.14-.006.281t-.006.319H83.018a2.488,2.488,0,0,0,.338,1.206,2,2,0,0,0,.753.721,2.013,2.013,0,0,0,.964.243,1.918,1.918,0,0,0,1.111-.306,1.753,1.753,0,0,0,.651-.83h1.06a2.858,2.858,0,0,1-.977,1.462A2.848,2.848,0,0,1,85.074-25.216Zm0-5.732a2.141,2.141,0,0,0-1.36.466,1.877,1.877,0,0,0-.683,1.36h3.983a1.811,1.811,0,0,0-.587-1.34A1.97,1.97,0,0,0,85.074-30.947ZM90.065-33.1a.724.724,0,0,1-.523-.211.707.707,0,0,1-.217-.53.672.672,0,0,1,.217-.511.736.736,0,0,1,.523-.2.714.714,0,0,1,.517.2.682.682,0,0,1,.211.511.718.718,0,0,1-.211.53A.7.7,0,0,1,90.065-33.1ZM88.125-22.56v-.919h.5a.977.977,0,0,0,.683-.2.891.891,0,0,0,.211-.67V-31.7h1.072v7.379a1.739,1.739,0,0,1-.46,1.34,1.918,1.918,0,0,1-1.34.421Zm6.306-2.655a2.87,2.87,0,0,1-1.315-.268,1.822,1.822,0,0,1-.779-.715,1.922,1.922,0,0,1-.255-.97,1.719,1.719,0,0,1,.74-1.494,3.438,3.438,0,0,1,2.017-.523H96.55v-.077a1.69,1.69,0,0,0-.434-1.257,1.583,1.583,0,0,0-1.162-.428,1.852,1.852,0,0,0-1.079.313,1.37,1.37,0,0,0-.568.913h-1.1a2.032,2.032,0,0,1,.466-1.162,2.6,2.6,0,0,1,1-.721,3.3,3.3,0,0,1,1.277-.249,2.624,2.624,0,0,1,2,.708,2.628,2.628,0,0,1,.67,1.883v3.894h-.957L96.6-26.5a2.511,2.511,0,0,1-.785.913A2.3,2.3,0,0,1,94.431-25.216Zm.166-.906a1.746,1.746,0,0,0,1.053-.319,2.037,2.037,0,0,0,.67-.83,2.584,2.584,0,0,0,.23-1.072v-.013H94.929a2.1,2.1,0,0,0-1.334.326,1.015,1.015,0,0,0-.389.811.982.982,0,0,0,.364.8A1.574,1.574,0,0,0,94.6-26.122Zm6.83.753a2.049,2.049,0,0,1-1.366-.421,1.914,1.914,0,0,1-.5-1.519v-3.485h-1.1V-31.7h1.1l.14-1.519h.932V-31.7H102.5v.906h-1.864v3.485a1.053,1.053,0,0,0,.243.811,1.322,1.322,0,0,0,.855.211h.664v.919Zm2.962-7.736a.718.718,0,0,1-.53-.211.718.718,0,0,1-.211-.53.682.682,0,0,1,.211-.511.73.73,0,0,1,.53-.2.736.736,0,0,1,.523.2.672.672,0,0,1,.217.511.707.707,0,0,1-.217.53A.724.724,0,0,1,104.388-33.1Zm-.536,7.736V-31.7h1.072v6.332Z" transform="translate(-3.552 70.129)" fill="#626262"/>
  </g>
</svg>
